<svg width="30" height="30" viewBox="0 0 30 30" fill="none" xmlns="http://www.w3.org/2000/svg">
<path d="M2.16406 6.5C2.16187 6.37086 2.18502 6.24221 2.23242 6.12207C2.2798 6.002 2.35072 5.89262 2.44043 5.7998C2.5302 5.70696 2.63739 5.63248 2.75586 5.58105C2.84462 5.54253 2.93841 5.51695 3.03418 5.50586L3.13086 5.5H5.33105V6.16699H2.83105V25.5H27.1641V6.16699H24.6641V5.5H26.8643L26.9609 5.50586C27.0567 5.51695 27.1505 5.54253 27.2393 5.58105C27.3577 5.63248 27.4649 5.70695 27.5547 5.7998C27.6444 5.89262 27.7153 6.00199 27.7627 6.12207C27.8101 6.24222 27.8332 6.37087 27.8311 6.5V25.167C27.8332 25.2959 27.81 25.424 27.7627 25.5439C27.7153 25.6641 27.6445 25.7743 27.5547 25.8672C27.4649 25.96 27.3577 26.0345 27.2393 26.0859C27.1208 26.1373 26.9933 26.1648 26.8643 26.167H3.13086C3.00179 26.1648 2.87428 26.1373 2.75586 26.0859C2.63741 26.0345 2.53019 25.96 2.44043 25.8672C2.35065 25.7743 2.27982 25.6641 2.23242 25.5439C2.18517 25.424 2.16189 25.2959 2.16406 25.167V6.5Z" stroke="white"/>
<path d="M7.83105 12.1665V12.8335H7.16406V12.1665H7.83105Z" stroke="white"/>
<path d="M12.8311 12.1665V12.8335H12.1641V12.1665H12.8311Z" stroke="white"/>
<path d="M17.8311 12.1665V12.8335H17.1641V12.1665H17.8311Z" stroke="white"/>
<path d="M22.8311 12.1665V12.8335H22.1641V12.1665H22.8311Z" stroke="white"/>
<path d="M7.83105 16.3335V17.0005H7.16406V16.3335H7.83105Z" stroke="white"/>
<path d="M12.8311 16.3335V17.0005H12.1641V16.3335H12.8311Z" stroke="white"/>
<path d="M17.8311 16.3335V17.0005H17.1641V16.3335H17.8311Z" stroke="white"/>
<path d="M22.8311 16.3335V17.0005H22.1641V16.3335H22.8311Z" stroke="white"/>
<path d="M7.83105 20.5V21.167H7.16406V20.5H7.83105Z" stroke="white"/>
<path d="M12.8311 20.5V21.167H12.1641V20.5H12.8311Z" stroke="white"/>
<path d="M17.8311 20.5V21.167H17.1641V20.5H17.8311Z" stroke="white"/>
<path d="M22.8311 20.5V21.167H22.1641V20.5H22.8311Z" stroke="white"/>
<path d="M8.33301 2.1665C8.42141 2.1665 8.50682 2.20165 8.56934 2.26416C8.63167 2.32658 8.66691 2.4113 8.66699 2.49951V7.49951C8.66699 7.58792 8.63185 7.67333 8.56934 7.73584C8.50682 7.79835 8.42141 7.8335 8.33301 7.8335C8.2448 7.83341 8.16008 7.79817 8.09766 7.73584C8.03514 7.67333 8 7.58792 8 7.49951V2.49951C8.00009 2.41122 8.03522 2.3266 8.09766 2.26416C8.16009 2.20172 8.24472 2.16659 8.33301 2.1665Z" stroke="white"/>
<path d="M21.6689 2.1665C21.7574 2.1665 21.8428 2.20165 21.9053 2.26416C21.9676 2.32658 22.0028 2.4113 22.0029 2.49951V7.49951C22.0029 7.58792 21.9678 7.67333 21.9053 7.73584C21.8428 7.79835 21.7574 7.8335 21.6689 7.8335C21.5807 7.83341 21.496 7.79817 21.4336 7.73584C21.3711 7.67333 21.3359 7.58792 21.3359 7.49951V2.49951C21.336 2.41122 21.3712 2.32659 21.4336 2.26416C21.496 2.20173 21.5807 2.16659 21.6689 2.1665Z" stroke="white"/>
<path d="M18.6689 5.5V6.16699H11.3359V5.5H18.6689Z" stroke="white"/>
</svg>
