<svg width="15" height="16" viewBox="0 0 15 16" fill="none" xmlns="http://www.w3.org/2000/svg">
<path d="M8.85709 0.372935C8.57508 0.256137 8.217 0.256137 7.50085 0.256137C6.78469 0.256137 6.42661 0.256137 6.1446 0.372935C5.95802 0.45017 5.78849 0.56342 5.64569 0.706212C5.5029 0.849004 5.38965 1.01854 5.31242 1.20512C5.24172 1.37648 5.21329 1.57703 5.20253 1.86826C5.19753 2.07875 5.13922 2.28453 5.03305 2.46636C4.92689 2.64818 4.77634 2.8001 4.59549 2.90792C4.41169 3.01071 4.20482 3.06519 3.99423 3.06627C3.78365 3.06734 3.57623 3.01498 3.39139 2.91407C3.13321 2.77729 2.94648 2.70199 2.76129 2.6774C2.35736 2.62428 1.94886 2.73373 1.62559 2.98169C1.3843 3.16841 1.2045 3.47808 0.846417 4.09819C0.488338 4.71829 0.308531 5.02796 0.269342 5.33148C0.242935 5.53162 0.256217 5.73499 0.308428 5.92999C0.360639 6.12499 0.450756 6.3078 0.573632 6.46796C0.687357 6.6155 0.846417 6.73921 1.09308 6.89443C1.45653 7.12265 1.69013 7.51146 1.69013 7.94023C1.69013 8.36901 1.45653 8.75782 1.09308 8.98527C0.846417 9.14126 0.686588 9.26497 0.573632 9.41251C0.450756 9.57267 0.360639 9.75548 0.308428 9.95048C0.256217 10.1455 0.242935 10.3489 0.269342 10.549C0.309299 10.8517 0.488339 11.1622 0.845649 11.7823C1.2045 12.4024 1.38354 12.7121 1.62559 12.8988C1.78575 13.0217 1.96855 13.1118 2.16355 13.164C2.35855 13.2162 2.56193 13.2295 2.76206 13.2031C2.94648 13.1785 3.13321 13.1032 3.39139 12.9664C3.57623 12.8655 3.78365 12.8131 3.99423 12.8142C4.20482 12.8153 4.41169 12.8698 4.59549 12.9726C4.96663 13.1877 5.18716 13.5834 5.20253 14.0122C5.21329 14.3042 5.24095 14.504 5.31242 14.6753C5.38965 14.8619 5.5029 15.0315 5.64569 15.1743C5.78849 15.317 5.95802 15.4303 6.1446 15.5075C6.42661 15.6243 6.78469 15.6243 7.50085 15.6243C8.217 15.6243 8.57508 15.6243 8.85709 15.5075C9.04367 15.4303 9.21321 15.317 9.356 15.1743C9.49879 15.0315 9.61204 14.8619 9.68928 14.6753C9.75997 14.504 9.7884 14.3042 9.79916 14.0122C9.81453 13.5834 10.0351 13.1869 10.4062 12.9726C10.59 12.8698 10.7969 12.8153 11.0075 12.8142C11.218 12.8131 11.4255 12.8655 11.6103 12.9664C11.8685 13.1032 12.0552 13.1785 12.2396 13.2031C12.4398 13.2295 12.6431 13.2162 12.8381 13.164C13.0331 13.1118 13.2159 13.0217 13.3761 12.8988C13.6182 12.7128 13.7972 12.4024 14.1553 11.7823C14.5134 11.1622 14.6932 10.8525 14.7324 10.549C14.7588 10.3489 14.7455 10.1455 14.6933 9.95048C14.6411 9.75548 14.5509 9.57267 14.4281 9.41251C14.3143 9.26497 14.1553 9.14126 13.9086 8.98604C13.7288 8.87646 13.5796 8.72304 13.4752 8.54014C13.3708 8.35724 13.3145 8.15083 13.3116 7.94023C13.3116 7.51146 13.5452 7.12265 13.9086 6.8952C14.1553 6.73921 14.3151 6.6155 14.4281 6.46796C14.5509 6.3078 14.6411 6.12499 14.6933 5.92999C14.7455 5.73499 14.7588 5.53162 14.7324 5.33148C14.6924 5.02873 14.5134 4.71829 14.156 4.09819C13.7972 3.47808 13.6182 3.16841 13.3761 2.98169C13.2159 2.85881 13.0331 2.76869 12.8381 2.71648C12.6431 2.66427 12.4398 2.65099 12.2396 2.6774C12.0552 2.70199 11.8685 2.77729 11.6095 2.91407C11.4248 3.01484 11.2175 3.06713 11.0071 3.06605C10.7966 3.06498 10.5899 3.01057 10.4062 2.90792C10.2254 2.8001 10.0748 2.64818 9.96864 2.46636C9.86247 2.28453 9.80416 2.07875 9.79916 1.86826C9.7884 1.57626 9.76074 1.37648 9.68928 1.20512C9.61204 1.01854 9.49879 0.849004 9.356 0.706212C9.21321 0.56342 9.04367 0.45017 8.85709 0.372935Z" stroke="black" stroke-width="0.5"/>
</svg>
