<svg width="15" height="8" viewBox="0 0 15 8" fill="none" xmlns="http://www.w3.org/2000/svg">
<path d="M15 6.25C15 6.58152 14.8683 6.89946 14.6339 7.13388C14.3995 7.3683 14.0815 7.5 13.75 7.5C13.4185 7.5 13.1005 7.3683 12.8661 7.13388C12.6317 6.89946 12.5 6.58152 12.5 6.25C12.5 5.91848 12.6317 5.60054 12.8661 5.36612C13.1005 5.1317 13.4185 5 13.75 5C14.0815 5 14.3995 5.1317 14.6339 5.36612C14.8683 5.60054 15 5.91848 15 6.25ZM15 1.25C15 1.58152 14.8683 1.89946 14.6339 2.13388C14.3995 2.3683 14.0815 2.5 13.75 2.5C13.4185 2.5 13.1005 2.3683 12.8661 2.13388C12.6317 1.89946 12.5 1.58152 12.5 1.25C12.5 0.918479 12.6317 0.600537 12.8661 0.366117C13.1005 0.131696 13.4185 0 13.75 0C14.0815 0 14.3995 0.131696 14.6339 0.366117C14.8683 0.600537 15 0.918479 15 1.25ZM8.75 6.25C8.75 6.58152 8.6183 6.89946 8.38388 7.13388C8.14946 7.3683 7.83152 7.5 7.5 7.5C7.16848 7.5 6.85054 7.3683 6.61612 7.13388C6.3817 6.89946 6.25 6.58152 6.25 6.25C6.25 5.91848 6.3817 5.60054 6.61612 5.36612C6.85054 5.1317 7.16848 5 7.5 5C7.83152 5 8.14946 5.1317 8.38388 5.36612C8.6183 5.60054 8.75 5.91848 8.75 6.25ZM8.75 1.25C8.75 1.58152 8.6183 1.89946 8.38388 2.13388C8.14946 2.3683 7.83152 2.5 7.5 2.5C7.16848 2.5 6.85054 2.3683 6.61612 2.13388C6.3817 1.89946 6.25 1.58152 6.25 1.25C6.25 0.918479 6.3817 0.600537 6.61612 0.366117C6.85054 0.131696 7.16848 0 7.5 0C7.83152 0 8.14946 0.131696 8.38388 0.366117C8.6183 0.600537 8.75 0.918479 8.75 1.25ZM2.5 6.25C2.5 6.58152 2.3683 6.89946 2.13388 7.13388C1.89946 7.3683 1.58152 7.5 1.25 7.5C0.918479 7.5 0.600537 7.3683 0.366117 7.13388C0.131696 6.89946 0 6.58152 0 6.25C0 5.91848 0.131696 5.60054 0.366117 5.36612C0.600537 5.1317 0.918479 5 1.25 5C1.58152 5 1.89946 5.1317 2.13388 5.36612C2.3683 5.60054 2.5 5.91848 2.5 6.25ZM2.5 1.25C2.5 1.58152 2.3683 1.89946 2.13388 2.13388C1.89946 2.3683 1.58152 2.5 1.25 2.5C0.918479 2.5 0.600537 2.3683 0.366117 2.13388C0.131696 1.89946 0 1.58152 0 1.25C0 0.918479 0.131696 0.600537 0.366117 0.366117C0.600537 0.131696 0.918479 0 1.25 0C1.58152 0 1.89946 0.131696 2.13388 0.366117C2.3683 0.600537 2.5 0.918479 2.5 1.25Z" fill="white" fill-opacity="0.8"/>
</svg>
