<svg width="21" height="27" viewBox="0 0 21 27" fill="none" xmlns="http://www.w3.org/2000/svg">
<path d="M9.41204e-08 3.58061C9.41204e-08 2.63097 0.368703 1.72023 1.025 1.04874C1.68129 0.377241 2.57142 0 3.49956 0H17.4978C18.426 0 19.3161 0.377241 19.9724 1.04874C20.6287 1.72023 20.9974 2.63097 20.9974 3.58061V11.4579C20.9974 11.6479 20.9236 11.83 20.7924 11.9643C20.6611 12.0986 20.4831 12.1741 20.2975 12.1741C20.1118 12.1741 19.9338 12.0986 19.8025 11.9643C19.6713 11.83 19.5976 11.6479 19.5976 11.4579V3.58061C19.5976 3.01082 19.3763 2.46438 18.9826 2.06148C18.5888 1.65859 18.0547 1.43224 17.4978 1.43224H3.49956C2.94268 1.43224 2.4086 1.65859 2.01482 2.06148C1.62105 2.46438 1.39983 3.01082 1.39983 3.58061V24.1791C1.39983 24.3012 1.43036 24.4213 1.4885 24.528C1.54665 24.6346 1.63049 24.7243 1.73204 24.7884C1.8336 24.8526 1.94951 24.8891 2.06875 24.8945C2.18798 24.8999 2.30659 24.874 2.4133 24.8193L3.81312 24.1032C4.16181 23.9251 4.55206 23.8498 4.9402 23.8857C5.32835 23.9216 5.69906 24.0673 6.01085 24.3066L7.27909 25.2791C7.40024 25.372 7.5476 25.4223 7.69904 25.4223C7.85048 25.4223 7.99783 25.372 8.11899 25.2791L9.32563 24.3524C9.6596 24.0962 10.0606 23.9476 10.4775 23.9256C10.8944 23.9037 11.3082 24.0094 11.6661 24.2292L12.6082 24.8079C12.7675 24.9055 12.8823 25.0638 12.9275 25.2481C12.9726 25.4324 12.9444 25.6274 12.849 25.7904C12.7536 25.9533 12.5988 26.0708 12.4187 26.117C12.2386 26.1632 12.048 26.1344 11.8887 26.0367L10.9452 25.4581C10.8261 25.3848 10.6883 25.3495 10.5494 25.3566C10.4105 25.3637 10.2769 25.413 10.1655 25.4982L8.95888 26.4249C8.59542 26.7038 8.15336 26.8545 7.69904 26.8545C7.24472 26.8545 6.80265 26.7038 6.4392 26.4249L5.17095 25.4509C5.06689 25.3716 4.94332 25.3234 4.81403 25.3118C4.68475 25.3001 4.55485 25.3255 4.43885 25.3851L3.03902 26.1012C2.71884 26.265 2.36304 26.3424 2.00541 26.3259C1.64778 26.3095 1.3002 26.1998 0.995692 26.0072C0.691182 25.8146 0.439855 25.5455 0.265586 25.2256C0.0913165 24.9056 -0.00010708 24.5454 9.41204e-08 24.1791V3.58061Z" fill="white"/>
</svg>
