<svg width="23" height="26" viewBox="0 0 23 26" fill="none" xmlns="http://www.w3.org/2000/svg">
<path d="M11.5 13.4167C13.025 13.4167 14.4875 12.8109 15.5659 11.7325C16.6442 10.6542 17.25 9.19166 17.25 7.66667C17.25 6.14167 16.6442 4.67914 15.5659 3.6008C14.4875 2.52247 13.025 1.91667 11.5 1.91667C9.975 1.91667 8.51247 2.52247 7.43414 3.6008C6.3558 4.67914 5.75 6.14167 5.75 7.66667C5.75 9.19166 6.3558 10.6542 7.43414 11.7325C8.51247 12.8109 9.975 13.4167 11.5 13.4167ZM11.5 15.3333C9.46667 15.3333 7.51663 14.5256 6.07885 13.0878C4.64107 11.65 3.83333 9.69999 3.83333 7.66667C3.83333 5.63334 4.64107 3.68329 6.07885 2.24551C7.51663 0.807736 9.46667 0 11.5 0C13.5333 0 15.4834 0.807736 16.9212 2.24551C18.3589 3.68329 19.1667 5.63334 19.1667 7.66667C19.1667 9.69999 18.3589 11.65 16.9212 13.0878C15.4834 14.5256 13.5333 15.3333 11.5 15.3333ZM21.0833 24.9167V22.0417C21.0833 21.2792 20.7804 20.5479 20.2413 20.0087C19.7021 19.4696 18.9708 19.1667 18.2083 19.1667H4.79167C4.02917 19.1667 3.2979 19.4696 2.75873 20.0087C2.21957 20.5479 1.91667 21.2792 1.91667 22.0417V24.9167C1.91667 25.1708 1.8157 25.4146 1.63598 25.5943C1.45625 25.774 1.2125 25.875 0.958333 25.875C0.704168 25.875 0.460412 25.774 0.28069 25.5943C0.100967 25.4146 0 25.1708 0 24.9167V22.0417C0 20.7708 0.504835 19.5521 1.40345 18.6534C2.30206 17.7548 3.52084 17.25 4.79167 17.25H18.2083C19.4792 17.25 20.6979 17.7548 21.5966 18.6534C22.4952 19.5521 23 20.7708 23 22.0417V24.9167C23 25.1708 22.899 25.4146 22.7193 25.5943C22.5396 25.774 22.2958 25.875 22.0417 25.875C21.7875 25.875 21.5437 25.774 21.364 25.5943C21.1843 25.4146 21.0833 25.1708 21.0833 24.9167Z" fill="white"/>
</svg>
