<svg width="21" height="22" viewBox="0 0 21 22" fill="none" xmlns="http://www.w3.org/2000/svg">
<path d="M0 0.716121C0 0.526194 0.0737407 0.344046 0.205 0.209747C0.336259 0.0754484 0.514284 0 0.699913 0H9.79878C9.9844 0 10.1624 0.0754484 10.2937 0.209747C10.4249 0.344046 10.4987 0.526194 10.4987 0.716121C10.4987 0.906048 10.4249 1.0882 10.2937 1.2225C10.1624 1.35679 9.9844 1.43224 9.79878 1.43224H0.699913C0.514284 1.43224 0.336259 1.35679 0.205 1.2225C0.0737407 1.0882 0 0.906048 0 0.716121ZM0 5.01285C0 4.82292 0.0737407 4.64077 0.205 4.50647C0.336259 4.37217 0.514284 4.29673 0.699913 4.29673H11.8985C12.0841 4.29673 12.2622 4.37217 12.3934 4.50647C12.5247 4.64077 12.5984 4.82292 12.5984 5.01285C12.5984 5.20277 12.5247 5.38492 12.3934 5.51922C12.2622 5.65352 12.0841 5.72897 11.8985 5.72897H0.699913C0.514284 5.72897 0.336259 5.65352 0.205 5.51922C0.0737407 5.38492 0 5.20277 0 5.01285ZM0 9.30957C0 9.11965 0.0737407 8.9375 0.205 8.8032C0.336259 8.6689 0.514284 8.59345 0.699913 8.59345H5.5993C5.78493 8.59345 5.96295 8.6689 6.09421 8.8032C6.22547 8.9375 6.29921 9.11965 6.29921 9.30957C6.29921 9.4995 6.22547 9.68165 6.09421 9.81595C5.96295 9.95025 5.78493 10.0257 5.5993 10.0257H0.699913C0.514284 10.0257 0.336259 9.95025 0.205 9.81595C0.0737407 9.68165 0 9.4995 0 9.30957ZM0 13.6063C0 13.4164 0.0737407 13.2342 0.205 13.0999C0.336259 12.9656 0.514284 12.8902 0.699913 12.8902H5.5993C5.78493 12.8902 5.96295 12.9656 6.09421 13.0999C6.22547 13.2342 6.29921 13.4164 6.29921 13.6063C6.29921 13.7962 6.22547 13.9784 6.09421 14.1127C5.96295 14.247 5.78493 14.3224 5.5993 14.3224H0.699913C0.514284 14.3224 0.336259 14.247 0.205 14.1127C0.0737407 13.9784 0 13.7962 0 13.6063ZM15.3981 11.4579C14.2843 11.4579 13.2162 11.9106 12.4286 12.7164C11.641 13.5222 11.1986 14.6151 11.1986 15.7547C11.1986 16.8942 11.641 17.9871 12.4286 18.7929C13.2162 19.5987 14.2843 20.0514 15.3981 20.0514C16.5118 20.0514 17.58 19.5987 18.3676 18.7929C19.1551 17.9871 19.5976 16.8942 19.5976 15.7547C19.5976 14.6151 19.1551 13.5222 18.3676 12.7164C17.58 11.9106 16.5118 11.4579 15.3981 11.4579ZM9.79878 15.7547C9.79878 14.2352 10.3887 12.7781 11.4388 11.7037C12.4888 10.6293 13.913 10.0257 15.3981 10.0257C16.8831 10.0257 18.3073 10.6293 19.3574 11.7037C20.4075 12.7781 20.9974 14.2352 20.9974 15.7547C20.9974 17.2741 20.4075 18.7313 19.3574 19.8057C18.3073 20.88 16.8831 21.4836 15.3981 21.4836C13.913 21.4836 12.4888 20.88 11.4388 19.8057C10.3887 18.7313 9.79878 17.2741 9.79878 15.7547ZM17.7302 13.9944C17.7954 14.061 17.8471 14.14 17.8824 14.227C17.9176 14.314 17.9358 14.4073 17.9358 14.5015C17.9358 14.5956 17.9176 14.6889 17.8824 14.7759C17.8471 14.8629 17.7954 14.9419 17.7302 15.0085L14.785 18.0205L13.066 16.2617C13.0009 16.1952 12.9493 16.1162 12.914 16.0293C12.8787 15.9424 12.8606 15.8493 12.8605 15.7552C12.8604 15.6611 12.8785 15.5679 12.9136 15.4809C12.9488 15.394 13.0003 15.3149 13.0653 15.2484C13.1965 15.1139 13.3746 15.0383 13.5603 15.0381C13.6523 15.0381 13.7434 15.0565 13.8283 15.0925C13.9133 15.1284 13.9906 15.1812 14.0556 15.2476L14.785 15.9953L16.7405 13.9944C16.8718 13.8602 17.0498 13.7848 17.2353 13.7848C17.4209 13.7848 17.5989 13.8602 17.7302 13.9944Z" fill="white"/>
</svg>
