<svg width="25" height="25" viewBox="0 0 25 25" fill="none" xmlns="http://www.w3.org/2000/svg">
<path d="M8.67347 23.9796H16.3265M8.67347 23.9796V17.602M8.67347 23.9796H1.78571C1.58274 23.9796 1.38808 23.899 1.24456 23.7554C1.10104 23.6119 1.02041 23.4173 1.02041 23.2143V18.3673C1.02041 18.1644 1.10104 17.9697 1.24456 17.8262C1.38808 17.6827 1.58274 17.602 1.78571 17.602H8.67347M16.3265 23.9796V8.67347M16.3265 23.9796H23.2143C23.4173 23.9796 23.6119 23.899 23.7554 23.7554C23.899 23.6119 23.9796 23.4173 23.9796 23.2143V1.78571C23.9796 1.58274 23.899 1.38808 23.7554 1.24456C23.6119 1.10104 23.4173 1.02041 23.2143 1.02041H17.0918C16.8889 1.02041 16.6942 1.10104 16.5507 1.24456C16.4072 1.38808 16.3265 1.58274 16.3265 1.78571V8.67347M8.67347 17.602V9.43878C8.67347 9.2358 8.7541 9.04114 8.89762 8.89762C9.04114 8.7541 9.2358 8.67347 9.43878 8.67347H16.3265" stroke="white" stroke-width="2"/>
</svg>
